<mxfile host="app.diagrams.net" agent="Mozilla/5.0 (Windows NT 10.0; Win64; x64) AppleWebKit/537.36 (KHTML, like Gecko) Chrome/139.0.0.0 Safari/537.36" version="28.1.0" pages="3">
  <diagram name="book-lending-activity-diagram" id="na2abrJgNWN0BR8FoHpx">
    <mxGraphModel dx="1105" dy="705" grid="1" gridSize="10" guides="1" tooltips="1" connect="1" arrows="1" fold="1" page="1" pageScale="1" pageWidth="850" pageHeight="1100" math="0" shadow="0">
      <root>
        <mxCell id="0" />
        <mxCell id="1" parent="0" />
        <mxCell id="w5oiFS9pp764Blb9vhK6-1" value="Borrower" style="swimlane;whiteSpace=wrap;html=1;" vertex="1" parent="1">
          <mxGeometry x="200" y="80" width="200" height="960" as="geometry" />
        </mxCell>
        <mxCell id="w5oiFS9pp764Blb9vhK6-40" value="" style="edgeStyle=orthogonalEdgeStyle;rounded=0;orthogonalLoop=1;jettySize=auto;html=1;" edge="1" parent="w5oiFS9pp764Blb9vhK6-1" source="w5oiFS9pp764Blb9vhK6-3" target="w5oiFS9pp764Blb9vhK6-4">
          <mxGeometry relative="1" as="geometry" />
        </mxCell>
        <mxCell id="w5oiFS9pp764Blb9vhK6-3" value="" style="strokeWidth=2;html=1;shape=mxgraph.flowchart.start_2;whiteSpace=wrap;" vertex="1" parent="w5oiFS9pp764Blb9vhK6-1">
          <mxGeometry x="90" y="50" width="20" height="20" as="geometry" />
        </mxCell>
        <mxCell id="w5oiFS9pp764Blb9vhK6-4" value="Initiate borrow request" style="rounded=1;whiteSpace=wrap;html=1;" vertex="1" parent="w5oiFS9pp764Blb9vhK6-1">
          <mxGeometry x="40" y="120" width="120" height="60" as="geometry" />
        </mxCell>
        <mxCell id="w5oiFS9pp764Blb9vhK6-16" value="Make payment" style="rounded=1;whiteSpace=wrap;html=1;" vertex="1" parent="w5oiFS9pp764Blb9vhK6-1">
          <mxGeometry x="40" y="440" width="120" height="60" as="geometry" />
        </mxCell>
        <mxCell id="w5oiFS9pp764Blb9vhK6-2" value="Librarian" style="swimlane;whiteSpace=wrap;html=1;" vertex="1" parent="1">
          <mxGeometry x="400" y="80" width="200" height="960" as="geometry" />
        </mxCell>
        <mxCell id="w5oiFS9pp764Blb9vhK6-9" value="" style="edgeStyle=orthogonalEdgeStyle;rounded=0;orthogonalLoop=1;jettySize=auto;html=1;" edge="1" parent="w5oiFS9pp764Blb9vhK6-2" source="w5oiFS9pp764Blb9vhK6-5" target="w5oiFS9pp764Blb9vhK6-8">
          <mxGeometry relative="1" as="geometry" />
        </mxCell>
        <mxCell id="w5oiFS9pp764Blb9vhK6-5" value="Check borrower&#39;s details" style="rounded=1;whiteSpace=wrap;html=1;" vertex="1" parent="w5oiFS9pp764Blb9vhK6-2">
          <mxGeometry x="40" y="120" width="120" height="60" as="geometry" />
        </mxCell>
        <mxCell id="w5oiFS9pp764Blb9vhK6-13" value="" style="edgeStyle=orthogonalEdgeStyle;rounded=0;orthogonalLoop=1;jettySize=auto;html=1;" edge="1" parent="w5oiFS9pp764Blb9vhK6-2" source="w5oiFS9pp764Blb9vhK6-8" target="w5oiFS9pp764Blb9vhK6-10">
          <mxGeometry relative="1" as="geometry" />
        </mxCell>
        <mxCell id="w5oiFS9pp764Blb9vhK6-29" value="no" style="edgeLabel;html=1;align=center;verticalAlign=middle;resizable=0;points=[];" vertex="1" connectable="0" parent="w5oiFS9pp764Blb9vhK6-13">
          <mxGeometry x="-0.2627" y="1" relative="1" as="geometry">
            <mxPoint as="offset" />
          </mxGeometry>
        </mxCell>
        <mxCell id="w5oiFS9pp764Blb9vhK6-28" style="edgeStyle=orthogonalEdgeStyle;rounded=0;orthogonalLoop=1;jettySize=auto;html=1;entryX=0.226;entryY=0.658;entryDx=0;entryDy=0;entryPerimeter=0;" edge="1" parent="w5oiFS9pp764Blb9vhK6-2" source="w5oiFS9pp764Blb9vhK6-8" target="w5oiFS9pp764Blb9vhK6-26">
          <mxGeometry relative="1" as="geometry">
            <mxPoint x="20" y="730" as="targetPoint" />
            <Array as="points">
              <mxPoint x="21" y="250" />
              <mxPoint x="21" y="900" />
            </Array>
          </mxGeometry>
        </mxCell>
        <mxCell id="w5oiFS9pp764Blb9vhK6-30" value="yes" style="edgeLabel;html=1;align=center;verticalAlign=middle;resizable=0;points=[];" vertex="1" connectable="0" parent="w5oiFS9pp764Blb9vhK6-28">
          <mxGeometry x="-0.9168" y="-3" relative="1" as="geometry">
            <mxPoint as="offset" />
          </mxGeometry>
        </mxCell>
        <mxCell id="w5oiFS9pp764Blb9vhK6-8" value="Check Failed" style="strokeWidth=2;html=1;shape=mxgraph.flowchart.decision;whiteSpace=wrap;" vertex="1" parent="w5oiFS9pp764Blb9vhK6-2">
          <mxGeometry x="70" y="220" width="60" height="60" as="geometry" />
        </mxCell>
        <mxCell id="w5oiFS9pp764Blb9vhK6-15" value="" style="edgeStyle=orthogonalEdgeStyle;rounded=0;orthogonalLoop=1;jettySize=auto;html=1;" edge="1" parent="w5oiFS9pp764Blb9vhK6-2" source="w5oiFS9pp764Blb9vhK6-10" target="w5oiFS9pp764Blb9vhK6-14">
          <mxGeometry relative="1" as="geometry" />
        </mxCell>
        <mxCell id="w5oiFS9pp764Blb9vhK6-10" value="Store the initiation of lending transaction" style="rounded=1;whiteSpace=wrap;html=1;" vertex="1" parent="w5oiFS9pp764Blb9vhK6-2">
          <mxGeometry x="40" y="320" width="120" height="60" as="geometry" />
        </mxCell>
        <mxCell id="w5oiFS9pp764Blb9vhK6-14" value="Initiate payment request" style="rounded=1;whiteSpace=wrap;html=1;" vertex="1" parent="w5oiFS9pp764Blb9vhK6-2">
          <mxGeometry x="40" y="440" width="120" height="60" as="geometry" />
        </mxCell>
        <mxCell id="w5oiFS9pp764Blb9vhK6-27" value="" style="edgeStyle=orthogonalEdgeStyle;rounded=0;orthogonalLoop=1;jettySize=auto;html=1;" edge="1" parent="w5oiFS9pp764Blb9vhK6-2" source="w5oiFS9pp764Blb9vhK6-23" target="w5oiFS9pp764Blb9vhK6-26">
          <mxGeometry relative="1" as="geometry" />
        </mxCell>
        <mxCell id="w5oiFS9pp764Blb9vhK6-23" value="Record payment and lending details" style="rounded=1;whiteSpace=wrap;html=1;strokeWidth=2;" vertex="1" parent="w5oiFS9pp764Blb9vhK6-2">
          <mxGeometry x="40" y="650" width="120" height="60" as="geometry" />
        </mxCell>
        <mxCell id="w5oiFS9pp764Blb9vhK6-26" value="" style="shape=waypoint;sketch=0;size=6;pointerEvents=1;points=[];fillColor=default;resizable=0;rotatable=0;perimeter=centerPerimeter;snapToPoint=1;rounded=1;strokeWidth=2;" vertex="1" parent="w5oiFS9pp764Blb9vhK6-2">
          <mxGeometry x="90" y="890" width="20" height="20" as="geometry" />
        </mxCell>
        <mxCell id="w5oiFS9pp764Blb9vhK6-21" value="Payment successful" style="strokeWidth=2;html=1;shape=mxgraph.flowchart.decision;whiteSpace=wrap;" vertex="1" parent="w5oiFS9pp764Blb9vhK6-2">
          <mxGeometry x="57.5" y="530" width="85" height="90" as="geometry" />
        </mxCell>
        <mxCell id="w5oiFS9pp764Blb9vhK6-24" value="" style="edgeStyle=orthogonalEdgeStyle;rounded=0;orthogonalLoop=1;jettySize=auto;html=1;" edge="1" parent="w5oiFS9pp764Blb9vhK6-2" source="w5oiFS9pp764Blb9vhK6-21" target="w5oiFS9pp764Blb9vhK6-23">
          <mxGeometry relative="1" as="geometry" />
        </mxCell>
        <mxCell id="w5oiFS9pp764Blb9vhK6-39" value="yes" style="edgeLabel;html=1;align=center;verticalAlign=middle;resizable=0;points=[];" vertex="1" connectable="0" parent="w5oiFS9pp764Blb9vhK6-24">
          <mxGeometry x="0.4298" y="-1" relative="1" as="geometry">
            <mxPoint as="offset" />
          </mxGeometry>
        </mxCell>
        <mxCell id="w5oiFS9pp764Blb9vhK6-32" value="" style="edgeStyle=orthogonalEdgeStyle;rounded=0;orthogonalLoop=1;jettySize=auto;html=1;entryX=0.314;entryY=0.768;entryDx=0;entryDy=0;entryPerimeter=0;" edge="1" parent="w5oiFS9pp764Blb9vhK6-2" source="w5oiFS9pp764Blb9vhK6-21" target="w5oiFS9pp764Blb9vhK6-26">
          <mxGeometry relative="1" as="geometry">
            <mxPoint x="10" y="880" as="targetPoint" />
            <Array as="points">
              <mxPoint x="10" y="575" />
              <mxPoint x="10" y="905" />
              <mxPoint x="100" y="905" />
            </Array>
          </mxGeometry>
        </mxCell>
        <mxCell id="w5oiFS9pp764Blb9vhK6-37" value="no" style="edgeLabel;html=1;align=center;verticalAlign=middle;resizable=0;points=[];" vertex="1" connectable="0" parent="w5oiFS9pp764Blb9vhK6-32">
          <mxGeometry x="-0.9298" y="-1" relative="1" as="geometry">
            <mxPoint as="offset" />
          </mxGeometry>
        </mxCell>
        <mxCell id="w5oiFS9pp764Blb9vhK6-6" value="" style="edgeStyle=orthogonalEdgeStyle;rounded=0;orthogonalLoop=1;jettySize=auto;html=1;" edge="1" parent="1" source="w5oiFS9pp764Blb9vhK6-4" target="w5oiFS9pp764Blb9vhK6-5">
          <mxGeometry relative="1" as="geometry" />
        </mxCell>
        <mxCell id="w5oiFS9pp764Blb9vhK6-11" value="lms db" style="shape=cylinder3;whiteSpace=wrap;html=1;boundedLbl=1;backgroundOutline=1;size=15;" vertex="1" parent="1">
          <mxGeometry x="690" y="390" width="60" height="80" as="geometry" />
        </mxCell>
        <mxCell id="w5oiFS9pp764Blb9vhK6-12" style="edgeStyle=orthogonalEdgeStyle;rounded=0;orthogonalLoop=1;jettySize=auto;html=1;entryX=0;entryY=0.5;entryDx=0;entryDy=0;entryPerimeter=0;" edge="1" parent="1" source="w5oiFS9pp764Blb9vhK6-10" target="w5oiFS9pp764Blb9vhK6-11">
          <mxGeometry relative="1" as="geometry" />
        </mxCell>
        <mxCell id="w5oiFS9pp764Blb9vhK6-17" value="" style="edgeStyle=orthogonalEdgeStyle;rounded=0;orthogonalLoop=1;jettySize=auto;html=1;" edge="1" parent="1" source="w5oiFS9pp764Blb9vhK6-14" target="w5oiFS9pp764Blb9vhK6-16">
          <mxGeometry relative="1" as="geometry" />
        </mxCell>
        <mxCell id="w5oiFS9pp764Blb9vhK6-19" value="Payment Gateway" style="rounded=1;whiteSpace=wrap;html=1;absoluteArcSize=1;arcSize=14;strokeWidth=2;" vertex="1" parent="1">
          <mxGeometry x="60" y="500" width="100" height="100" as="geometry" />
        </mxCell>
        <mxCell id="w5oiFS9pp764Blb9vhK6-20" style="edgeStyle=orthogonalEdgeStyle;rounded=0;orthogonalLoop=1;jettySize=auto;html=1;" edge="1" parent="1" source="w5oiFS9pp764Blb9vhK6-16" target="w5oiFS9pp764Blb9vhK6-19">
          <mxGeometry relative="1" as="geometry" />
        </mxCell>
        <mxCell id="w5oiFS9pp764Blb9vhK6-25" style="edgeStyle=orthogonalEdgeStyle;rounded=0;orthogonalLoop=1;jettySize=auto;html=1;" edge="1" parent="1" source="w5oiFS9pp764Blb9vhK6-23" target="w5oiFS9pp764Blb9vhK6-11">
          <mxGeometry relative="1" as="geometry" />
        </mxCell>
        <mxCell id="w5oiFS9pp764Blb9vhK6-22" value="" style="edgeStyle=orthogonalEdgeStyle;rounded=0;orthogonalLoop=1;jettySize=auto;html=1;entryX=0.5;entryY=0;entryDx=0;entryDy=0;entryPerimeter=0;" edge="1" parent="1" source="w5oiFS9pp764Blb9vhK6-16" target="w5oiFS9pp764Blb9vhK6-21">
          <mxGeometry relative="1" as="geometry">
            <Array as="points">
              <mxPoint x="300" y="610" />
            </Array>
          </mxGeometry>
        </mxCell>
      </root>
    </mxGraphModel>
  </diagram>
  <diagram id="Fiw-jzIVPjx-pQGSKH0b" name="book-lending-class-diagram">
    <mxGraphModel dx="1105" dy="705" grid="1" gridSize="10" guides="1" tooltips="1" connect="1" arrows="1" fold="1" page="1" pageScale="1" pageWidth="850" pageHeight="1100" math="0" shadow="0">
      <root>
        <mxCell id="0" />
        <mxCell id="1" parent="0" />
        <mxCell id="F2fzhcQ0z_BQjq3skrtL-1" value="&lt;p style=&quot;margin:0px;margin-top:4px;text-align:center;&quot;&gt;&lt;b&gt;Class&lt;/b&gt;&lt;/p&gt;&lt;hr size=&quot;1&quot; style=&quot;border-style:solid;&quot;/&gt;&lt;p style=&quot;margin:0px;margin-left:4px;&quot;&gt;+ field: Type&lt;/p&gt;&lt;hr size=&quot;1&quot; style=&quot;border-style:solid;&quot;/&gt;&lt;p style=&quot;margin:0px;margin-left:4px;&quot;&gt;+ method(): Type&lt;/p&gt;" style="verticalAlign=top;align=left;overflow=fill;html=1;whiteSpace=wrap;" vertex="1" parent="1">
          <mxGeometry x="340" y="320" width="160" height="90" as="geometry" />
        </mxCell>
      </root>
    </mxGraphModel>
  </diagram>
  <diagram id="B75eApIiFvwlCmxT6oI9" name="book-lending-data-flow-diagram">
    <mxGraphModel dx="1955" dy="705" grid="1" gridSize="10" guides="1" tooltips="1" connect="1" arrows="1" fold="1" page="1" pageScale="1" pageWidth="850" pageHeight="1100" math="0" shadow="0">
      <root>
        <mxCell id="0" />
        <mxCell id="1" parent="0" />
        <mxCell id="Cf5fhmFarYZ3jC_u3-X6-3" value="" style="edgeStyle=orthogonalEdgeStyle;rounded=0;orthogonalLoop=1;jettySize=auto;html=1;" edge="1" parent="1" source="Cf5fhmFarYZ3jC_u3-X6-1" target="Cf5fhmFarYZ3jC_u3-X6-2">
          <mxGeometry relative="1" as="geometry" />
        </mxCell>
        <mxCell id="Cf5fhmFarYZ3jC_u3-X6-4" value="member-id, book-copies" style="edgeLabel;html=1;align=center;verticalAlign=middle;resizable=0;points=[];" vertex="1" connectable="0" parent="Cf5fhmFarYZ3jC_u3-X6-3">
          <mxGeometry x="-0.0942" y="-2" relative="1" as="geometry">
            <mxPoint as="offset" />
          </mxGeometry>
        </mxCell>
        <mxCell id="Cf5fhmFarYZ3jC_u3-X6-1" value="input" style="rounded=1;whiteSpace=wrap;html=1;" vertex="1" parent="1">
          <mxGeometry x="360" y="120" width="120" height="60" as="geometry" />
        </mxCell>
        <mxCell id="Cf5fhmFarYZ3jC_u3-X6-25" value="" style="edgeStyle=orthogonalEdgeStyle;rounded=0;orthogonalLoop=1;jettySize=auto;html=1;" edge="1" parent="1" source="Cf5fhmFarYZ3jC_u3-X6-2" target="Cf5fhmFarYZ3jC_u3-X6-24">
          <mxGeometry relative="1" as="geometry" />
        </mxCell>
        <mxCell id="Cf5fhmFarYZ3jC_u3-X6-26" value="member-id, book-copies" style="edgeLabel;html=1;align=center;verticalAlign=middle;resizable=0;points=[];" vertex="1" connectable="0" parent="Cf5fhmFarYZ3jC_u3-X6-25">
          <mxGeometry x="0.0096" relative="1" as="geometry">
            <mxPoint as="offset" />
          </mxGeometry>
        </mxCell>
        <mxCell id="Cf5fhmFarYZ3jC_u3-X6-2" value="check member and book copies exist" style="rounded=1;whiteSpace=wrap;html=1;" vertex="1" parent="1">
          <mxGeometry x="360" y="280" width="120" height="60" as="geometry" />
        </mxCell>
        <mxCell id="Cf5fhmFarYZ3jC_u3-X6-22" style="edgeStyle=orthogonalEdgeStyle;rounded=0;orthogonalLoop=1;jettySize=auto;html=1;entryX=1;entryY=0.5;entryDx=0;entryDy=0;" edge="1" parent="1" source="Cf5fhmFarYZ3jC_u3-X6-21" target="Cf5fhmFarYZ3jC_u3-X6-2">
          <mxGeometry relative="1" as="geometry" />
        </mxCell>
        <mxCell id="Cf5fhmFarYZ3jC_u3-X6-23" value="member, book-copies" style="edgeLabel;html=1;align=center;verticalAlign=middle;resizable=0;points=[];" vertex="1" connectable="0" parent="Cf5fhmFarYZ3jC_u3-X6-22">
          <mxGeometry x="-0.0348" y="-2" relative="1" as="geometry">
            <mxPoint as="offset" />
          </mxGeometry>
        </mxCell>
        <mxCell id="Cf5fhmFarYZ3jC_u3-X6-21" value="lms-db" style="shape=partialRectangle;whiteSpace=wrap;html=1;left=0;right=0;fillColor=none;" vertex="1" parent="1">
          <mxGeometry x="710" y="280" width="120" height="60" as="geometry" />
        </mxCell>
        <mxCell id="Cf5fhmFarYZ3jC_u3-X6-27" style="edgeStyle=orthogonalEdgeStyle;rounded=0;orthogonalLoop=1;jettySize=auto;html=1;exitX=1;exitY=0.5;exitDx=0;exitDy=0;" edge="1" parent="1" source="Cf5fhmFarYZ3jC_u3-X6-24">
          <mxGeometry relative="1" as="geometry">
            <mxPoint x="740" y="350" as="targetPoint" />
            <mxPoint x="510" y="430" as="sourcePoint" />
            <Array as="points">
              <mxPoint x="741" y="430" />
            </Array>
          </mxGeometry>
        </mxCell>
        <mxCell id="Cf5fhmFarYZ3jC_u3-X6-28" value="transaction-id, cost, member-id, book-copies" style="edgeLabel;html=1;align=center;verticalAlign=middle;resizable=0;points=[];" vertex="1" connectable="0" parent="Cf5fhmFarYZ3jC_u3-X6-27">
          <mxGeometry x="-0.3629" y="1" relative="1" as="geometry">
            <mxPoint x="21" y="1" as="offset" />
          </mxGeometry>
        </mxCell>
        <mxCell id="Cf5fhmFarYZ3jC_u3-X6-30" value="" style="edgeStyle=orthogonalEdgeStyle;rounded=0;orthogonalLoop=1;jettySize=auto;html=1;" edge="1" parent="1" source="Cf5fhmFarYZ3jC_u3-X6-24" target="Cf5fhmFarYZ3jC_u3-X6-29">
          <mxGeometry relative="1" as="geometry" />
        </mxCell>
        <mxCell id="Cf5fhmFarYZ3jC_u3-X6-31" value="cost, recipient-details, transaction-id" style="edgeLabel;html=1;align=center;verticalAlign=middle;resizable=0;points=[];" vertex="1" connectable="0" parent="Cf5fhmFarYZ3jC_u3-X6-30">
          <mxGeometry x="-0.1928" relative="1" as="geometry">
            <mxPoint as="offset" />
          </mxGeometry>
        </mxCell>
        <mxCell id="Cf5fhmFarYZ3jC_u3-X6-24" value="Prepare lend transaction" style="whiteSpace=wrap;html=1;rounded=1;" vertex="1" parent="1">
          <mxGeometry x="360" y="400" width="120" height="60" as="geometry" />
        </mxCell>
        <mxCell id="Cf5fhmFarYZ3jC_u3-X6-36" style="edgeStyle=orthogonalEdgeStyle;rounded=0;orthogonalLoop=1;jettySize=auto;html=1;" edge="1" parent="1" source="Cf5fhmFarYZ3jC_u3-X6-29" target="Cf5fhmFarYZ3jC_u3-X6-37">
          <mxGeometry relative="1" as="geometry">
            <mxPoint x="240" y="570" as="targetPoint" />
          </mxGeometry>
        </mxCell>
        <mxCell id="Cf5fhmFarYZ3jC_u3-X6-46" value="request-id, cost, recipient-details, transaction-id" style="edgeLabel;html=1;align=center;verticalAlign=middle;resizable=0;points=[];" vertex="1" connectable="0" parent="Cf5fhmFarYZ3jC_u3-X6-36">
          <mxGeometry x="0.1371" y="3" relative="1" as="geometry">
            <mxPoint as="offset" />
          </mxGeometry>
        </mxCell>
        <mxCell id="Cf5fhmFarYZ3jC_u3-X6-40" style="edgeStyle=orthogonalEdgeStyle;rounded=0;orthogonalLoop=1;jettySize=auto;html=1;" edge="1" parent="1" source="Cf5fhmFarYZ3jC_u3-X6-29">
          <mxGeometry relative="1" as="geometry">
            <mxPoint x="780" y="350" as="targetPoint" />
          </mxGeometry>
        </mxCell>
        <mxCell id="Cf5fhmFarYZ3jC_u3-X6-41" value="request-id, transaction-id, cost" style="edgeLabel;html=1;align=center;verticalAlign=middle;resizable=0;points=[];" vertex="1" connectable="0" parent="Cf5fhmFarYZ3jC_u3-X6-40">
          <mxGeometry x="-0.5431" y="-1" relative="1" as="geometry">
            <mxPoint as="offset" />
          </mxGeometry>
        </mxCell>
        <mxCell id="Cf5fhmFarYZ3jC_u3-X6-29" value="request payment" style="rounded=1;whiteSpace=wrap;html=1;" vertex="1" parent="1">
          <mxGeometry x="360" y="540" width="120" height="60" as="geometry" />
        </mxCell>
        <mxCell id="Cf5fhmFarYZ3jC_u3-X6-34" style="edgeStyle=orthogonalEdgeStyle;rounded=0;orthogonalLoop=1;jettySize=auto;html=1;" edge="1" parent="1" source="Cf5fhmFarYZ3jC_u3-X6-33">
          <mxGeometry relative="1" as="geometry">
            <mxPoint x="760" y="350" as="targetPoint" />
          </mxGeometry>
        </mxCell>
        <mxCell id="Cf5fhmFarYZ3jC_u3-X6-35" value="payment-status" style="edgeLabel;html=1;align=center;verticalAlign=middle;resizable=0;points=[];" vertex="1" connectable="0" parent="Cf5fhmFarYZ3jC_u3-X6-34">
          <mxGeometry x="-0.6193" y="-1" relative="1" as="geometry">
            <mxPoint as="offset" />
          </mxGeometry>
        </mxCell>
        <mxCell id="Cf5fhmFarYZ3jC_u3-X6-43" value="" style="edgeStyle=orthogonalEdgeStyle;rounded=0;orthogonalLoop=1;jettySize=auto;html=1;" edge="1" parent="1" source="Cf5fhmFarYZ3jC_u3-X6-33" target="Cf5fhmFarYZ3jC_u3-X6-42">
          <mxGeometry relative="1" as="geometry" />
        </mxCell>
        <mxCell id="Cf5fhmFarYZ3jC_u3-X6-48" value="transaction-id" style="edgeLabel;html=1;align=center;verticalAlign=middle;resizable=0;points=[];" vertex="1" connectable="0" parent="Cf5fhmFarYZ3jC_u3-X6-43">
          <mxGeometry x="-0.0928" y="1" relative="1" as="geometry">
            <mxPoint as="offset" />
          </mxGeometry>
        </mxCell>
        <mxCell id="Cf5fhmFarYZ3jC_u3-X6-33" value="update payment status" style="rounded=1;whiteSpace=wrap;html=1;" vertex="1" parent="1">
          <mxGeometry x="360" y="680" width="120" height="60" as="geometry" />
        </mxCell>
        <mxCell id="Cf5fhmFarYZ3jC_u3-X6-38" style="edgeStyle=orthogonalEdgeStyle;rounded=0;orthogonalLoop=1;jettySize=auto;html=1;entryX=0;entryY=0.5;entryDx=0;entryDy=0;" edge="1" parent="1" source="Cf5fhmFarYZ3jC_u3-X6-37" target="Cf5fhmFarYZ3jC_u3-X6-33">
          <mxGeometry relative="1" as="geometry">
            <Array as="points">
              <mxPoint x="-10" y="710" />
            </Array>
          </mxGeometry>
        </mxCell>
        <mxCell id="Cf5fhmFarYZ3jC_u3-X6-39" value="request-id, transaction-id, payment status" style="edgeLabel;html=1;align=center;verticalAlign=middle;resizable=0;points=[];" vertex="1" connectable="0" parent="Cf5fhmFarYZ3jC_u3-X6-38">
          <mxGeometry x="0.3353" y="3" relative="1" as="geometry">
            <mxPoint as="offset" />
          </mxGeometry>
        </mxCell>
        <mxCell id="Cf5fhmFarYZ3jC_u3-X6-37" value="payment gateway" style="rounded=0;whiteSpace=wrap;html=1;" vertex="1" parent="1">
          <mxGeometry x="-70" y="540" width="120" height="60" as="geometry" />
        </mxCell>
        <mxCell id="Cf5fhmFarYZ3jC_u3-X6-44" style="edgeStyle=orthogonalEdgeStyle;rounded=0;orthogonalLoop=1;jettySize=auto;html=1;" edge="1" parent="1" source="Cf5fhmFarYZ3jC_u3-X6-42">
          <mxGeometry relative="1" as="geometry">
            <mxPoint x="800" y="350" as="targetPoint" />
          </mxGeometry>
        </mxCell>
        <mxCell id="Cf5fhmFarYZ3jC_u3-X6-45" value="transaction-status" style="edgeLabel;html=1;align=center;verticalAlign=middle;resizable=0;points=[];" vertex="1" connectable="0" parent="Cf5fhmFarYZ3jC_u3-X6-44">
          <mxGeometry x="-0.6931" relative="1" as="geometry">
            <mxPoint as="offset" />
          </mxGeometry>
        </mxCell>
        <mxCell id="Cf5fhmFarYZ3jC_u3-X6-49" style="edgeStyle=orthogonalEdgeStyle;rounded=0;orthogonalLoop=1;jettySize=auto;html=1;" edge="1" parent="1" source="Cf5fhmFarYZ3jC_u3-X6-42" target="Cf5fhmFarYZ3jC_u3-X6-50">
          <mxGeometry relative="1" as="geometry">
            <mxPoint x="420" y="968.77197265625" as="targetPoint" />
          </mxGeometry>
        </mxCell>
        <mxCell id="Cf5fhmFarYZ3jC_u3-X6-53" value="member-id, book-copies" style="edgeLabel;html=1;align=center;verticalAlign=middle;resizable=0;points=[];" vertex="1" connectable="0" parent="Cf5fhmFarYZ3jC_u3-X6-49">
          <mxGeometry x="-0.0318" relative="1" as="geometry">
            <mxPoint as="offset" />
          </mxGeometry>
        </mxCell>
        <mxCell id="Cf5fhmFarYZ3jC_u3-X6-42" value="update lend transaction status" style="whiteSpace=wrap;html=1;rounded=1;" vertex="1" parent="1">
          <mxGeometry x="360" y="820" width="120" height="60" as="geometry" />
        </mxCell>
        <mxCell id="Cf5fhmFarYZ3jC_u3-X6-51" style="edgeStyle=orthogonalEdgeStyle;rounded=0;orthogonalLoop=1;jettySize=auto;html=1;" edge="1" parent="1">
          <mxGeometry relative="1" as="geometry">
            <mxPoint x="809" y="350" as="targetPoint" />
            <mxPoint x="479" y="990" as="sourcePoint" />
          </mxGeometry>
        </mxCell>
        <mxCell id="Cf5fhmFarYZ3jC_u3-X6-52" value="transaction-id, book-copies, borrow-status, start-date, end-date" style="edgeLabel;html=1;align=center;verticalAlign=middle;resizable=0;points=[];" vertex="1" connectable="0" parent="Cf5fhmFarYZ3jC_u3-X6-51">
          <mxGeometry x="-0.7302" y="1" relative="1" as="geometry">
            <mxPoint x="30" y="11" as="offset" />
          </mxGeometry>
        </mxCell>
        <mxCell id="Cf5fhmFarYZ3jC_u3-X6-50" value="update member&#39;s borrowed books" style="rounded=1;whiteSpace=wrap;html=1;" vertex="1" parent="1">
          <mxGeometry x="360" y="960.00197265625" width="120" height="60" as="geometry" />
        </mxCell>
      </root>
    </mxGraphModel>
  </diagram>
</mxfile>
